<svg version="1.2" baseProfile="tiny-ps" xmlns="http://www.w3.org/2000/svg" viewBox="0 0 240 240" width="240" height="240">
	<title>ishnd-logo-svg</title>
	<defs>
		<clipPath clipPathUnits="userSpaceOnUse" id="cp1">
			<path d="M120 240C53.64 240 0 186.36 0 120C0 53.64 53.64 0 120 0C186.36 0 240 53.64 240 120C240 186.36 186.36 240 120 240Z" />
		</clipPath>
	</defs>
	<style>
		tspan { white-space:pre }
		.shp0 { fill: #ffcc00 } 
		.shp1 { fill: none;stroke: #707070;stroke-width: 0.192 } 
		.shp2 { fill: none;stroke: #707070;stroke-width: 7.488 } 
		.shp3 { fill: #ebbd0b } 
		.shp4 { fill: #e5b700 } 
		.shp5 { fill: #f1c000 } 
		.shp6 { fill: #000000 } 
	</style>
	<g id="Group_42">
		<g id="Group_47">
			<g id="Group_41">
				<g id="Group_46">
					<g id="Mask_Group_14">
						<g id="Group_45">
							<g id="Clip-Path: Mask_Group_14-2" clip-path="url(#cp1)">
								<g id="Mask_Group_14-2">
									<g id="Group_44">
										<g id="Component_13_1">
											<g id="Ellipse_1">
												<path id="Layer" class="shp0" d="M120 240C53.64 240 0 186.36 0 120C0 53.64 53.64 0 120 0C186.36 0 240 53.64 240 120C240 186.36 186.36 240 120 240Z" />
												<path id="Layer" class="shp1" d="M120 239.9C53.69 239.9 0.1 186.31 0.1 120C0.1 53.69 53.69 0.1 120 0.1C186.31 0.1 239.9 53.69 239.9 120C239.9 186.31 186.31 239.9 120 239.9Z" />
											</g>
											<g id="Group_43">
												<path id="Path_73" class="shp2" d="" />
												<path id="Path_67" class="shp3" d="M175.53 141L172.46 122.03L231.3 168.23L215.19 215.68L187.33 233.96L142.06 251.81L68.48 196.09L154.25 196.09L174.63 178.94L175.53 141Z" />
												<path id="Path_69" class="shp4" d="M168.09 177.73L166.11 184.33L129.54 158.65L140.48 158.65L165.39 175.81L168.09 177.73Z" />
												<path id="Path_68" class="shp5" d="M178.19 157.34L175.58 183.03L140.57 158.7L140.47 130.63L168.61 129.48L175.58 139.06L178.19 157.34Z" />
												<path id="Path_70" class="shp4" d="M139.5 158.81L137.89 176.51L155.47 188.17L146.25 190.7L136.89 184.5L100.32 158.81L111.2 158.81L136.89 140.52L139.5 158.81Z" />
												<path id="Path_71" class="shp5" d="M161.99 181.1L155.56 188.35L111.2 158.81L111.2 126.66L139.34 129.59L129.62 158.81L161.99 181.1Z" />
												<path id="Path_74" class="shp4" d="M212.56 234.79L142.06 251.81L68.48 196.09L138.23 198.5L148.92 190.79L212.56 234.79Z" />
												<path id="Path_75" class="shp4" d="M131.41 191.16L128.18 195.36L103.94 195.36L80.35 189.22L72.78 176.44L72.78 150.76L74.13 150.38L131.41 191.16Z" />
												<path id="Path_79" class="shp5" d="M254.12 117.47L249.15 140.47L181.48 87.12L177.11 60.23L164.01 44.9C164.01 44.9 167.09 46.11 168.18 46.99C169.27 47.87 171.92 49.42 173.31 50.82C174.71 52.21 254.12 117.47 254.12 117.47Z" />
												<path id="Path_78" class="shp4" d="M163.55 87.15L222.16 133.18L252 157.22L253.29 143.05L181.52 87.14L163.55 87.15Z" />
												<path id="Path_77" class="shp4" d="M140.59 80.01L199.2 126L268.45 181.47L244.85 174.36L235.16 171.77L175.37 124.59L140.6 113.62L140.59 80.01Z" />
												<path id="Path_76" class="shp4" d="M111.2 79.89L169.92 126L149.41 124.41L111.2 111.18L111.2 79.89Z" />
												<path id="Path_65" class="shp6" d="M56.21 150.41L74.19 150.41L74.19 153.45C74.19 163.05 74.91 170.13 76.36 174.68C77.8 179.23 80.19 182.44 83.51 184.32C86.11 185.76 90.12 186.79 95.53 187.41C100.95 188.02 112.1 188.33 129 188.33C138.17 188.33 145.29 187.73 150.34 186.54C155.4 185.35 159.15 183.42 161.61 180.74C162.98 179.3 163.99 176.84 164.64 173.38C165.29 169.91 165.61 165.22 165.61 159.3C165.61 147.31 164.4 139.78 161.99 136.71C159.57 133.64 154.78 131.82 147.63 131.24L97.91 127.34C83.04 126.19 72.75 122.47 67.04 116.18C61.34 109.9 58.49 99.32 58.49 84.45C58.49 75.06 59.42 67.51 61.3 61.81C63.18 56.1 66.21 51.37 70.4 47.62C73.65 44.73 78.2 42.69 84.05 41.5C89.9 40.31 100.22 39.71 115.03 39.71L120.77 39.71C137.31 39.71 148.95 40.51 155.7 42.1C162.45 43.68 168.1 46.43 172.65 50.33C175.76 52.93 178.05 56.63 179.53 61.43C181.01 66.23 181.75 72.21 181.75 79.36C181.75 81.45 181.73 83.06 181.7 84.18C181.66 85.3 181.61 86.29 181.54 87.16L163.55 87.16L163.55 83.15C163.55 77.23 163.21 72.7 162.53 69.55C161.84 66.41 160.74 64.08 159.22 62.57C156.98 60.33 152.99 58.76 147.25 57.86C141.51 56.95 130.63 56.5 114.6 56.5C97.99 56.5 87.55 58.38 83.29 62.13C79.03 65.89 76.9 73.4 76.9 84.66C76.9 93.91 78.29 100.28 81.07 103.78C83.85 107.29 89.21 109.36 97.16 110.01L147.85 114.24C161.14 115.39 170.45 119.06 175.79 125.23C181.14 131.4 183.81 141.71 183.81 156.15C183.81 166.7 183.12 174.62 181.75 179.93C180.38 185.24 178.11 189.66 174.93 193.2C171.03 197.6 165.78 200.69 159.17 202.46C152.56 204.23 140.52 205.11 123.04 205.11L115.03 205.11C100.15 205.11 89.63 204.36 83.45 202.84C77.28 201.32 72.13 198.69 68.02 194.93C63.97 191.47 61 186.77 59.08 180.85C57.17 174.93 56.21 167.42 56.21 158.32L56.21 150.41Z" />
												<path id="Path_82" class="shp6" d="M129.56 79.94L140.7 79.94L140.7 158.77L129.56 158.77L129.56 79.94Z" />
												<path id="Path_83" class="shp6" d="M100.16 79.94L111.29 79.94L111.29 158.77L100.16 158.77L100.16 79.94Z" />
											</g>
										</g>
									</g>
								</g>
							</g>
						</g>
					</g>
				</g>
			</g>
		</g>
	</g>
</svg>